<svg xmlns="http://www.w3.org/2000/svg" width="40" height="40" viewBox="0 0 40 40">
    <g fill="#0279FF" fill-rule="evenodd">
        <path d="M25.863 0H6.256a.923.923 0 0 0-.923.923v38.452c0 .51.414.924.923.924h28.832c.51 0 .924-.414.924-.924v-29.32L25.862 0zm-.548 1.333l9.364 9.278v28.354H6.667V1.333h18.648z"/>
        <path d="M32.086 10.159h-6.22V1.335L24.533 0v10.5c0 .548.444.992.992.992H36.01L34.68 10.16h-2.593z"/>
        <g>
            <path d="M19.286 19v4.286H15v1.428h4.286V29h1.428v-4.286H25v-1.428h-4.286V19z"/>
        </g>
    </g>
</svg>
