<svg xmlns="http://www.w3.org/2000/svg" width="21" height="20" viewBox="0 0 21 20">
    <g fill="#0279FF" fill-rule="evenodd">
        <path d="M13.006 0H3.169a.462.462 0 0 0-.463.461v19.226c0 .256.208.462.463.462h14.465a.463.463 0 0 0 .464-.462V5.027L13.006 0zm-.275.667l4.698 4.638v14.178H3.375V.667h9.356z"/>
        <path d="M16.128 5.08h-3.12V.666L12.338 0v5.25c0 .274.223.496.498.496h5.262l-.669-.667h-1.301z"/>
        <g>
            <path d="M10.262 12.5v.214h-.214v.072h.214V13h.071v-.214h.215v-.072h-.215V12.5z"/>
        </g>
    </g>
</svg>
