<svg xmlns="http://www.w3.org/2000/svg" width="15" height="15" viewBox="0 0 15 15">
    <path fill="#25203E" fill-rule="nonzero" d="M13.397 8.571H1.603c-.27 0-.478-.371-.478-.857 0-.485.207-.857.478-.857h11.794c.27 0 .478.372.478.857 0 .486-.207.857-.478.857zm0-5.571H1.603c-.27 0-.478-.371-.478-.857s.207-.857.478-.857h11.794c.27 0 .478.371.478.857S13.668 3 13.397 3zM1.603 12.429h11.794c.27 0 .478.371.478.857 0 .485-.207.857-.478.857H1.603c-.27 0-.478-.372-.478-.857 0-.486.207-.857.478-.857z"/>
</svg>
