<svg xmlns="http://www.w3.org/2000/svg" width="24" height="24" viewBox="0 0 24 24">
    <g fill="#FFF" fill-rule="nonzero">
        <path d="M10.578 2H3.066a.455.455 0 0 0-.455.456v7.511c0 .252.203.455.455.455h7.512a.455.455 0 0 0 .455-.455V2.456A.455.455 0 0 0 10.578 2zm-.455 7.512H3.52V2.911h6.602v6.601zM21.273 2h-7.512a.455.455 0 0 0-.455.456v7.511c0 .252.204.455.455.455h7.512a.455.455 0 0 0 .455-.455V2.456A.455.455 0 0 0 21.273 2zm-.455 7.512h-6.602V2.911h6.602v6.601zM10.578 12.696H3.066a.455.455 0 0 0-.455.455v7.512c0 .251.203.455.455.455h7.512a.455.455 0 0 0 .455-.455v-7.512a.455.455 0 0 0-.455-.455zm-.455 7.512H3.52v-6.602h6.602v6.602zM21.273 12.696h-7.512a.455.455 0 0 0-.455.455v7.512c0 .251.204.455.455.455h7.512a.455.455 0 0 0 .455-.455v-7.512a.455.455 0 0 0-.455-.455zm-.455 7.512h-6.602v-6.602h6.602v6.602z"/>
    </g>
</svg>
