<svg xmlns="http://www.w3.org/2000/svg" width="24" height="24" viewBox="0 0 24 24">
    <g fill="#FEFFFF" fill-rule="nonzero">
        <path d="M4.74 4.05a.444.444 0 0 0 .045-.636.466.466 0 0 0-.649-.045 11.664 11.664 0 0 0-4.123 8.34 11.617 11.617 0 0 0 3.327 8.673A12.121 12.121 0 0 0 12.048 24a12.122 12.122 0 0 0 8.68-3.686 11.612 11.612 0 0 0 3.255-8.7c-.177-3.214-1.692-6.216-4.191-8.307v.001a.466.466 0 0 0-.65.05.444.444 0 0 0 .052.636c2.466 2.06 3.886 5.077 3.885 8.253 0 5.984-4.97 10.851-11.079 10.851-6.109 0-11.078-4.867-11.078-10.851 0-3.145 1.392-6.135 3.818-8.196z"/>
        <path d="M12.8 13.147V.453c0-.25-.179-.453-.4-.453-.22 0-.4.202-.4.453v12.694c0 .25.18.453.4.453.221 0 .4-.202.4-.453z"/>
    </g>
</svg>
