<svg xmlns="http://www.w3.org/2000/svg" xmlns:xlink="http://www.w3.org/1999/xlink" width="25" height="24" viewBox="0 0 25 24">
    <defs>
        <path id="a" d="M15.532 2.647H.604L2.16 17.432a1.159 1.159 0 0 0 1.15 1.041h9.519a1.16 1.16 0 0 0 1.15-1.041l1.554-14.785zm-.674.61l-1.483 14.11a.55.55 0 0 1-.547.496H3.309a.55.55 0 0 1-.547-.496L1.278 3.257h13.58zm-6.79 2.49c.167 0 .303.138.303.306v8.653a.304.304 0 0 1-.303.305.304.304 0 0 1-.303-.305V6.053c0-.168.136-.305.303-.305zm-3.177.012c.15-.016.311.115.324.283l.604 8.632a.305.305 0 0 1-.28.326h-.023a.304.304 0 0 1-.301-.283L4.61 6.086a.305.305 0 0 1 .28-.327zM9.79 0c.397 0 .749.225.896.562l.038.104.636 2.578H4.776L5.411.666a.952.952 0 0 1 .817-.66L6.345 0h3.446zm0 .61H6.345a.382.382 0 0 0-.324.166l-.029.063-.441 1.795h5.036l-.45-1.822C10.105.706 9.957.61 9.79.61zM10.62 15h-.022a.305.305 0 0 1-.281-.326l.605-8.632a.312.312 0 0 1 .324-.283.305.305 0 0 1 .28.327l-.604 8.63a.304.304 0 0 1-.302.284"/>
        <path id="b" d="M17.084 3.127H-.946a.304.304 0 0 1-.304-.305c0-.168.136-.305.303-.305h18.031c.167 0 .303.137.303.305a.304.304 0 0 1-.303.305"/>
    </defs>
    <g fill="#0279FF" fill-rule="evenodd" transform="translate(5 2.888)">
        <use xlink:href="#a"/>
        <use xlink:href="#b"/>
    </g>
</svg>
