<svg xmlns="http://www.w3.org/2000/svg" width="26" height="23" viewBox="0 0 26 23">
    <g fill="currentcolor" fill-rule="nonzero">
        <path d="M8.593 11.991a.601.601 0 0 1 0-.854.604.604 0 0 1 .857 0l2.903 2.897V4.393a.63.63 0 0 1 .619-.617c.333 0 .571.284.571.617v9.64l2.904-2.896a.604.604 0 0 1 .857 0 .601.601 0 0 1 0 .854L13.4 15.886a.604.604 0 0 1-.856 0L8.593 11.99z"/>
        <path d="M18.303 15.363c0-.285.238-.475.476-.475.286 0 .476.19.476.475v1.235c0 1.045-.857 1.9-1.856 1.9H8.545a1.907 1.907 0 0 1-1.904-1.9v-1.235c0-.285.19-.475.476-.475s.476.19.476.475v1.235c0 .522.429.95.952.95H17.4c.476 0 .904-.428.904-.95v-1.235z"/>
    </g>
</svg>
