<svg xmlns="http://www.w3.org/2000/svg" width="25" height="23" viewBox="0 0 25 23">
    <g fill="currentcolor" fill-rule="nonzero">
        <path d="M5.313 19.47c.015 0 .03 0 .043-.003l4.2-.625a.303.303 0 0 0 .19-.106l8.088-9.527a.327.327 0 0 0-.03-.45L14.024 5.41a.307.307 0 0 0-.44.032L5.496 14.97a.328.328 0 0 0-.075.175L5 19.12a.332.332 0 0 0 .094.265c.06.054.137.086.219.086zm.646-3.456l2.628 2.326-2.921.438.293-2.764zm7.891-9.911l3.306 2.927-7.778 9.164-3.306-2.927 7.778-9.164zM18.319 8.197a.307.307 0 0 0 .206.076h.022a.309.309 0 0 0 .212-.108l.922-1.085c.197-.23.39-.514.34-.856-.046-.325-.3-.59-.568-.827l-2.362-2.09c-.838-.74-1.382-.323-1.763.127l-.819.964a.327.327 0 0 0 .032.45l3.778 3.349zM15.8 3.856c.319-.374.472-.428.881-.064l2.363 2.09c.281.25.35.374.36.438.009.067-.057.182-.195.345l-.715.842-3.306-2.93.612-.721z"/>
    </g>
</svg>
