<svg xmlns="http://www.w3.org/2000/svg" width="15" height="14" viewBox="0 0 15 14">
    <path fill="#51596D" fill-rule="nonzero" d="M12.34 1.125H1.91c-.848 0-1.535.676-1.535 1.51v7.855c0 .834.687 1.51 1.534 1.51h10.432c.847 0 1.534-.676 1.534-1.51V2.635c0-.834-.687-1.51-1.534-1.51zm.921 9.365c0 .5-.412.906-.92.906H1.909a.913.913 0 0 1-.92-.906v-.478l3.976-3.939 1.94 1.91 1.533 1.504a.307.307 0 0 0 .508-.134.296.296 0 0 0-.078-.29L7.56 7.772l2.933-2.9 2.767 2.725v2.894zm0-3.752L10.71 4.23a.29.29 0 0 0-.215-.09.29.29 0 0 0-.215.09L7.125 7.342 5.18 5.432a.29.29 0 0 0-.215-.09.315.315 0 0 0-.22.09L.988 9.155V2.635c0-.5.412-.906.92-.906h10.432c.508 0 .92.406.92.906v4.103zM8.352 4.146a.609.609 0 0 1-.613.604.609.609 0 0 1-.614-.604c0-.334.275-.604.614-.604.339 0 .613.27.613.604z"/>
</svg>
