<svg xmlns="http://www.w3.org/2000/svg" width="149" height="57" viewBox="0 0 149 57">
    <g fill="none" fill-rule="evenodd">
        <path fill="#FFF" d="M61 19.494V20.7c-.666-.493-1.352-.738-2.06-.738-.782 0-1.438.25-1.976.747-.538.496-.806 1.1-.806 1.818 0 .707.268 1.304.806 1.79.539.487 1.2.731 1.982.731.402 0 .745-.059 1.028-.176.159-.058.323-.138.49-.236.17-.099.346-.218.536-.357v1.226a4.57 4.57 0 0 1-2.07.495c-1.088 0-2.016-.337-2.783-1.01C55.38 24.312 55 23.494 55 22.534c0-.859.32-1.624.96-2.298.787-.822 1.807-1.236 3.06-1.236.682 0 1.344.165 1.98.494M62.163 22.484c0 .747.287 1.36.854 1.842.563.48 1.217.721 1.955.721.803 0 1.481-.245 2.034-.734.553-.495.828-1.099.828-1.81 0-.72-.272-1.323-.82-1.81-.539-.49-1.211-.734-2.011-.734-.796 0-1.468.245-2.018.734-.548.483-.822 1.08-.822 1.791M61 22.471c0-.95.394-1.765 1.182-2.448.79-.682 1.733-1.023 2.836-1.023 1.09 0 2.025.345 2.806 1.033.784.687 1.176 1.513 1.176 2.478 0 .972-.392 1.795-1.18 2.47-.79.68-1.744 1.019-2.86 1.019a4.258 4.258 0 0 1-2.661-.905C61.429 24.427 61 23.552 61 22.47M71 25.57V18l4.968 5.407v-4.923H77V26l-4.971-5.392v4.961zM82.8 20.135l-.956.49c-.18-.268-.349-.443-.511-.524-.167-.094-.385-.14-.652-.14-.327 0-.597.081-.811.241-.216.157-.324.355-.324.594 0 .33.282.594.848.796l.776.275c.634.22 1.096.49 1.39.81.295.32.44.71.44 1.173 0 .62-.24 1.132-.718 1.538-.481.408-1.078.612-1.795.612-.672 0-1.232-.173-1.673-.521-.434-.346-.707-.834-.814-1.463l1.193-.227c.053.396.147.67.283.821.242.292.596.438 1.06.438.367 0 .671-.107.914-.32a1.02 1.02 0 0 0 .364-.807 1.02 1.02 0 0 0-.063-.361.99.99 0 0 0-.199-.302 1.546 1.546 0 0 0-.345-.258 3.453 3.453 0 0 0-.505-.229l-.753-.271c-1.067-.39-1.6-.962-1.6-1.713 0-.506.221-.931.671-1.27.448-.344 1.007-.517 1.672-.517.9 0 1.602.378 2.108 1.135M88 19.993h-2.905v1.682h2.82v.993h-2.82v2.34H88V26h-4v-7h4zM90 26h1v-7h-1zM94.017 19v6.007H96V26h-3v-7zM100 25.57V18l4.972 5.407v-4.923H106V26l-4.972-5.392v4.961zM111.612 23.104l-1.069-2.56-1.118 2.56h2.187zm.442 1.067h-3.081L108.17 26H107l3.564-8L114 26h-1.187l-.759-1.829zM116.496 19.993V26h-.989v-6.007H114V19h4v.993zM119 26h1v-7h-1zM122.164 22.484c0 .747.285 1.36.853 1.842.564.48 1.218.721 1.959.721.802 0 1.48-.245 2.03-.734.55-.495.83-1.099.83-1.81 0-.72-.274-1.323-.818-1.81-.544-.49-1.212-.734-2.012-.734-.796 0-1.47.245-2.018.734-.55.483-.824 1.08-.824 1.791M121 22.471c0-.95.395-1.765 1.186-2.448.786-.682 1.73-1.023 2.835-1.023 1.09 0 2.025.345 2.804 1.033.787.687 1.175 1.513 1.175 2.478 0 .972-.393 1.795-1.179 2.47-.79.68-1.742 1.019-2.858 1.019a4.264 4.264 0 0 1-2.663-.905c-.865-.668-1.3-1.543-1.3-2.624M131 25.57V18l4.972 5.407v-4.923H137V26l-4.972-5.392v4.961zM142.612 23.104l-1.068-2.56-1.119 2.56h2.187zm.443 1.067h-3.082L139.17 26H138l3.565-8L145 26h-1.187l-.758-1.829zM146 19v7h3v-.993h-1.982V19zM56.172 37.008h.527c.527 0 .962-.05 1.312-.15.348-.106.662-.273.942-.503.576-.474.864-1.093.864-1.855 0-.768-.284-1.39-.851-1.868-.513-.427-1.268-.64-2.267-.64h-.527v5.016zM55 38v-7h1.63c.78 0 1.395.071 1.846.208.486.136.927.368 1.322.695.8.658 1.202 1.524 1.202 2.597 0 1.076-.419 1.947-1.253 2.612a3.726 3.726 0 0 1-1.315.694c-.43.13-1.037.194-1.823.194H55zM66 31.994h-2.908v1.681h2.822v.993h-2.822v2.34H66V38h-4v-7h4zM71.799 32.136l-.954.49c-.18-.269-.348-.444-.512-.524-.167-.095-.386-.14-.65-.14-.327 0-.6.08-.814.24-.214.157-.324.355-.324.594 0 .33.283.594.85.795l.777.277c.633.22 1.096.49 1.392.81.29.319.436.709.436 1.172 0 .62-.237 1.133-.716 1.538-.482.407-1.08.612-1.793.612-.676 0-1.237-.173-1.679-.52-.434-.347-.704-.835-.812-1.464l1.193-.227c.053.397.148.67.283.821.243.292.597.438 1.06.438.369 0 .673-.107.916-.32.243-.213.363-.482.363-.807 0-.133-.023-.253-.063-.362a.891.891 0 0 0-.199-.301A1.59 1.59 0 0 0 70.21 35a3.526 3.526 0 0 0-.507-.23l-.752-.27c-1.067-.39-1.603-.961-1.603-1.713 0-.507.227-.93.673-1.271.447-.344 1.007-.516 1.672-.516.9 0 1.603.379 2.107 1.136M77.016 37.007h.627c.46 0 .797-.095 1.013-.281a.984.984 0 0 0 .339-.77c0-.303-.11-.556-.328-.762-.211-.203-.593-.305-1.137-.305h-.515v2.118zm0-3.002h.319c.375 0 .653-.086.83-.261.176-.173.262-.43.262-.767 0-.33-.088-.58-.268-.751-.18-.17-.444-.257-.785-.257h-.358v2.036zM76 38V31h1.01c.455 0 .81.038 1.077.11.27.072.5.194.686.367.191.178.34.4.449.667.114.267.171.54.171.815 0 .502-.183.926-.552 1.274.356.127.64.35.845.666.21.314.314.68.314 1.098 0 .546-.186 1.008-.558 1.387a1.838 1.838 0 0 1-.753.485c-.308.088-.69.131-1.147.131H76v-.001zM85.61 35.104l-1.067-2.56-1.118 2.56h2.186zm.444 1.068h-3.083L82.169 38H81l3.563-8L88 38h-1.19l-.756-1.828zM90.166 34.215h.37c1.103 0 1.652-.382 1.652-1.146 0-.718-.536-1.075-1.608-1.075h-.414v2.22zm1.45.802L94 38h-1.42l-2.208-2.864h-.206V38H89v-7h1.366c1.019 0 1.756.175 2.208.523.5.386.749.897.749 1.532 0 .494-.157.92-.47 1.277-.31.358-.726.586-1.237.685zM96.163 34.215h.37c1.103 0 1.652-.382 1.652-1.146 0-.718-.533-1.075-1.607-1.075h-.415v2.22zm1.45.802L100 38h-1.425l-2.203-2.864h-.209V38H95v-7h1.363c1.02 0 1.756.175 2.208.523.5.386.75.897.75 1.532 0 .494-.158.92-.471 1.277-.31.358-.725.586-1.236.685zM104 31.994h-2.906v1.681h2.822v.993h-2.822v2.34H104V38h-4v-7h4zM109.61 35.104l-1.066-2.56-1.12 2.56h2.187zm.446 1.068h-3.084L106.168 38H105l3.563-8L112 38h-1.188l-.756-1.828zM114.02 31v4.141c0 .592.093 1.024.282 1.297.283.395.683.592 1.196.592.515 0 .915-.198 1.197-.592.19-.264.286-.698.286-1.297V31H118v4.426c0 .725-.224 1.322-.666 1.79a2.438 2.438 0 0 1-1.836.784 2.425 2.425 0 0 1-1.834-.784c-.444-.468-.664-1.066-.664-1.79V31h1.02zM121.387 34.342L119.297 31h1.304l1.451 2.371L123.578 31h1.313l-2.19 3.342L125 38h-1.283l-1.687-2.68L120.3 38H119z"/>
        <path fill="#DAB53F" d="M50 42.762h99v-.524H50zM50 14.762h99v-.524H50z"/>
        <path fill="#DAB53F" d="M27.002 2.364l21.95 12.68v26.393L26.108 54.636l-11.019-6.363H11L26.108 57l24.89-14.38L51 13.861 27.002 0z"/>
        <path fill="#FFF" d="M22 3a3 3 0 1 1-6 0 3 3 0 0 1 6 0M11 47V10h5.535v10.362h4.935V10H27v37z"/>
        <path fill="#B11730" d="M7.998 10A3.004 3.004 0 0 1 5 7.001 3.003 3.003 0 0 1 7.998 4 3.003 3.003 0 0 1 11 7.001 3.003 3.003 0 0 1 7.998 10M0 15v37h5.535V41.637h4.933V52H16V15z"/>
    </g>
</svg>
