<svg xmlns="http://www.w3.org/2000/svg" xmlns:xlink="http://www.w3.org/1999/xlink" width="44" height="44" viewBox="0 0 44 44">
    <defs>
        <path id="a" d="M0 0h24.003v23.062H0z"/>
    </defs>
    <g fill="none" fill-rule="evenodd">
        <circle cx="22" cy="22" r="22" fill="#DFB82D"/>
        <g transform="translate(10 10)">
            <mask id="b" fill="#fff">
                <use xlink:href="#a"/>
            </mask>
            <path fill="#FFF" d="M12.069 0C8.6 0 6.414 2.027 6 5.042c-.057.415-.622 6.94 2.499 9.023.175.118.229.353.092.513-.19.222-.53.554-1.135.989-1.107.799-2.443.97-5.292 2.07C.313 18.352.039 20.326 0 21.8a1.232 1.232 0 0 0 1.235 1.262h21.53c.69 0 1.245-.564 1.237-1.254-.02-1.524-.29-3.467-2.221-4.192-2.8-1.05-3.894-1.186-5.002-1.985a9.476 9.476 0 0 1-1.294-1.1c-.197-.205-.162-.52.054-.706 2.916-2.515 2.34-8.136 2.289-8.548C17.465 2.3 15.373.004 12.078 0h-.01zm0 0l.008 1c3.113.004 4.499 2.274 4.76 4.398.006.054.63 5.443-1.95 7.67-.318.274-.51.666-.53 1.077-.017.404.128.788.409 1.08.393.408.874.817 1.429 1.217.85.613 1.669.885 2.91 1.297.614.204 1.377.457 2.326.814 1.078.404 1.548 1.38 1.572 3.266a.235.235 0 0 1-.237.243H1.236a.232.232 0 0 1-.171-.072.22.22 0 0 1-.065-.164c.048-1.864.519-2.868 1.525-3.257 1.059-.408 1.922-.691 2.616-.92 1.213-.397 2.089-.685 2.9-1.27.565-.406 1.006-.794 1.31-1.151.247-.288.358-.667.305-1.041a1.378 1.378 0 0 0-.602-.954c-2.378-1.586-2.196-7.046-2.062-8.055C7.356 2.522 9.206 1 12.069 1V0z" mask="url(#b)"/>
        </g>
    </g>
</svg>
