<svg xmlns="http://www.w3.org/2000/svg" width="26" height="26" viewBox="0 0 26 26">
    <g fill="none" fill-rule="evenodd">
        <circle fill="#ebedf4" cx="12.5" cy="12.5" r="12.5" stroke="#319900" stroke-width=".833" transform="translate(.5 .5)"/>
        <path fill="#319900" fill-rule="nonzero" d="M11.333 15.065l-1.738-1.78c-.57-.582-1.044-.716-1.39-.604a.84.84 0 0 0-.363.24 1.25 1.25 0 0 0-.245.414c-.159.426-.131.938.148 1.225l2.581 2.64c.494.506.83.762 1.137.762.31 0 .642-.253 1.137-.76l5.655-5.787c.279-.286.307-.796.148-1.226a1.29 1.29 0 0 0-.244-.413.864.864 0 0 0-.364-.24c-.347-.112-.82.022-1.39.605l-4.94 5.055-.128-.131h-.004z"/>
    </g>
</svg>
