<svg xmlns="http://www.w3.org/2000/svg" width="29" height="26" viewBox="0 0 29 26">
    <g fill="#0279FF" fill-rule="evenodd">
        <path d="M9.572 22.407c.477.001.863.264.863.588 0 .325-.386.588-.863.589H2.613c-.31 0-.596-.112-.751-.294a.431.431 0 0 1 0-.59c.155-.181.442-.293.751-.293h6.96zM16.18 1.744l11.358 6.534c.467.27.423.707.111 1.029l-3.94 3.253.424 3.41a.602.602 0 0 1-.286.587l-11.94 6.819c-.587.342-.963-.024-.977-.56l-.037-13.711c0-.23.148-.453.36-.543l3.174-1.332.876-5.082c.093-.474.477-.587.877-.404zm.138 1.433l-.72 4.163 7.419 4.264 3.257-2.692-9.956-5.735zm-1.412 5.128L12.074 9.5l.028 11.21 3.072-5.283a1.833 1.833 0 0 1-.212-2.114c.347-.596.99-.933 1.642-.919a1.837 1.837 0 0 1 1.55 2.748 1.855 1.855 0 0 1-1.956.882l-3.1 5.312 9.817-5.606-.387-3.05-7.622-4.375zm1.67 5.266a.661.661 0 0 0-.59.33.633.633 0 0 0 .24.892h.009c.322.186.707.09.895-.239a.645.645 0 0 0-.25-.891.662.662 0 0 0-.304-.092z"/>
    </g>
</svg>
