<svg xmlns="http://www.w3.org/2000/svg" xmlns:xlink="http://www.w3.org/1999/xlink" width="25" height="26" viewBox="0 0 25 26">
    <defs>
        <path id="a" d="M11.637 6.895a8.702 8.702 0 0 0 1.821 1.38l.337.182a8.654 8.654 0 0 0 3.595.941l.342.007h1.402L17.806 8.32l-.064-.065a.434.434 0 0 1 .537-.657l.076.05 2.27 1.854c.009.006.015.015.023.022l.019.02c.014.014.027.03.038.047l.014.021a.428.428 0 0 1 .03.055l.007.02a.37.37 0 0 1 .029.147l-.008.075-.002.018a.435.435 0 0 1-.013.043.43.43 0 0 1-.016.045l-.018.034a.432.432 0 0 1-.028.044.434.434 0 0 1-.063.069l-.012.012-2.27 1.854a.434.434 0 0 1-.61-.61l.061-.063 1.326-1.082h-1.4c-1.381 0-2.744-.3-3.994-.878l-.339-.165a9.574 9.574 0 0 1-2.107-1.465l-.267-.254-.055-.068a.434.434 0 0 1 .667-.548zm6.29-6.84a.434.434 0 0 1 .428.07l2.27 1.854c.006.004.01.01.014.014a.438.438 0 0 1 .038.038l.023.029a.44.44 0 0 1 .03.048l.016.029a.43.43 0 0 1 .02.06c.003.009.007.017.009.026a.46.46 0 0 1 0 .184l-.008.025a.432.432 0 0 1-.021.061l-.016.028a.431.431 0 0 1-.03.05l-.023.027a.426.426 0 0 1-.038.04l-.014.013-2.27 1.854a.434.434 0 0 1-.549-.673l1.327-1.083H17.73a8.651 8.651 0 0 0-7.01 3.582 9.519 9.519 0 0 1-7.713 3.941H.482l-.078-.007a.434.434 0 0 1 .078-.861h2.525a8.65 8.65 0 0 0 7.01-3.582 9.52 9.52 0 0 1 7.713-3.941h1.403L17.806.797a.434.434 0 0 1 .12-.742zM3.007 1.882c2.51 0 4.92.992 6.703 2.762a.434.434 0 0 1-.612.616 8.644 8.644 0 0 0-5.781-2.505l-.31-.005H.482a.434.434 0 0 1-.085-.86l.085-.008h2.523z"/>
    </defs>
    <g fill="none" fill-rule="evenodd" transform="translate(2.083 7.25)">
        <mask id="b" fill="#fff">
            <use xlink:href="#a"/>
        </mask>
        <use fill="#000" fill-rule="nonzero" xlink:href="#a"/>
        <g fill="#FFF" mask="url(#b)">
            <path d="M-1.157-4.05H21.99v19.964H-1.157z"/>
        </g>
    </g>
</svg>
