<svg xmlns="http://www.w3.org/2000/svg" xmlns:xlink="http://www.w3.org/1999/xlink" width="20" height="20" viewBox="0 0 20 20">
    <defs>
        <path id="a" d="M0 .011h19.67V8H0z"/>
    </defs>
    <g fill="none" fill-rule="evenodd">
        <path fill="#FFF" d="M9.835 0a6.225 6.225 0 1 0 0 12.45 6.225 6.225 0 0 0 0-12.45m0 .667a5.564 5.564 0 0 1 5.559 5.558 5.564 5.564 0 0 1-5.559 5.558 5.564 5.564 0 0 1-5.559-5.558A5.564 5.564 0 0 1 9.836.667"/>
        <g transform="translate(0 11.806)">
            <mask id="b" fill="#fff">
                <use xlink:href="#a"/>
            </mask>
            <path fill="#FFF" d="M9.835.011C5.19.011 1.267 3.11.02 7.351c-.096.326.163.65.502.65h18.626c.34 0 .598-.324.502-.65C18.404 3.11 14.481.011 9.835.011m0 .667c4.143 0 7.86 2.725 9.112 6.655H.723C1.976 3.403 5.693.678 9.835.678" mask="url(#b)"/>
        </g>
    </g>
</svg>
